<svg width="140" height="143" viewBox="0 0 140 143" fill="none" xmlns="http://www.w3.org/2000/svg">
<path d="M4.448 28C4.08533 28 3.78667 27.8827 3.552 27.648C3.31733 27.4133 3.2 27.1147 3.2 26.752V4.256C3.2 3.89333 3.31733 3.59466 3.552 3.36C3.78667 3.12533 4.08533 3.008 4.448 3.008H21.472C21.8347 3.008 22.1333 3.12533 22.368 3.36C22.6027 3.59466 22.72 3.89333 22.72 4.256V26.752C22.72 27.1147 22.6027 27.4133 22.368 27.648C22.1333 27.8827 21.8347 28 21.472 28C21.1093 28 20.8107 27.8827 20.576 27.648C20.3413 27.4133 20.224 27.1147 20.224 26.752V5.344H5.696V26.752C5.696 27.1147 5.57867 27.4133 5.344 27.648C5.10933 27.8827 4.81067 28 4.448 28ZM36.7543 28.16C35.0476 28.16 33.5223 27.776 32.1783 27.008C30.8343 26.24 29.7783 25.184 29.0103 23.84C28.2423 22.496 27.8583 20.9707 27.8583 19.264C27.8583 17.536 28.2423 16 29.0103 14.656C29.7783 13.312 30.8343 12.256 32.1783 11.488C33.5223 10.72 35.0476 10.336 36.7543 10.336C38.4609 10.336 39.9756 10.72 41.2983 11.488C42.6423 12.256 43.6983 13.312 44.4663 14.656C45.2343 16 45.6289 17.536 45.6503 19.264C45.6503 20.9707 45.2556 22.496 44.4663 23.84C43.6983 25.184 42.6423 26.24 41.2983 27.008C39.9756 27.776 38.4609 28.16 36.7543 28.16ZM36.7543 25.92C37.9916 25.92 39.1009 25.632 40.0823 25.056C41.0636 24.48 41.8316 23.6907 42.3863 22.688C42.9409 21.6853 43.2183 20.544 43.2183 19.264C43.2183 17.984 42.9409 16.8427 42.3863 15.84C41.8316 14.816 41.0636 14.016 40.0823 13.44C39.1009 12.864 37.9916 12.576 36.7543 12.576C35.5169 12.576 34.4076 12.864 33.4263 13.44C32.4449 14.016 31.6663 14.816 31.0903 15.84C30.5356 16.8427 30.2583 17.984 30.2583 19.264C30.2583 20.544 30.5356 21.6853 31.0903 22.688C31.6663 23.6907 32.4449 24.48 33.4263 25.056C34.4076 25.632 35.5169 25.92 36.7543 25.92ZM67.7225 28.224C66.4638 28.224 65.3438 27.9253 64.3625 27.328C63.4025 26.7307 62.6452 25.888 62.0905 24.8C61.5572 23.712 61.2905 22.432 61.2905 20.96V11.744C61.2905 11.36 61.3972 11.0613 61.6105 10.848C61.8452 10.6133 62.1438 10.496 62.5065 10.496C62.8692 10.496 63.1678 10.6133 63.4025 10.848C63.6372 11.0613 63.7545 11.36 63.7545 11.744V20.96C63.7545 21.9627 63.9252 22.8373 64.2665 23.584C64.6292 24.3093 65.1305 24.8747 65.7705 25.28C66.4105 25.664 67.1465 25.856 67.9785 25.856C69.3012 25.856 70.3892 25.4293 71.2425 24.576C72.0958 23.7013 72.5225 22.592 72.5225 21.248L73.8345 21.28C73.7918 22.624 73.5038 23.8187 72.9705 24.864C72.4372 25.9093 71.7118 26.7307 70.7945 27.328C69.8985 27.9253 68.8745 28.224 67.7225 28.224ZM56.5545 28.224C55.2958 28.224 54.1758 27.9253 53.1945 27.328C52.2345 26.7307 51.4772 25.888 50.9225 24.8C50.3892 23.712 50.1225 22.432 50.1225 20.96V11.744C50.1225 11.36 50.2292 11.0613 50.4425 10.848C50.6772 10.6133 50.9758 10.496 51.3385 10.496C51.7012 10.496 51.9998 10.6133 52.2345 10.848C52.4692 11.0613 52.5865 11.36 52.5865 11.744V20.96C52.5865 21.9627 52.7572 22.8373 53.0985 23.584C53.4612 24.3093 53.9625 24.8747 54.6025 25.28C55.2425 25.664 55.9785 25.856 56.8105 25.856C58.1332 25.856 59.2105 25.4187 60.0425 24.544C60.8958 23.6693 61.3118 22.5067 61.2905 21.056H62.6025C62.5812 22.464 62.3038 23.712 61.7705 24.8C61.2585 25.8667 60.5438 26.7093 59.6265 27.328C58.7305 27.9253 57.7065 28.224 56.5545 28.224ZM73.7385 28C73.3758 28 73.0772 27.8933 72.8425 27.68C72.6292 27.4453 72.5225 27.136 72.5225 26.752V11.744C72.5225 11.36 72.6292 11.0613 72.8425 10.848C73.0772 10.6133 73.3758 10.496 73.7385 10.496C74.1012 10.496 74.3998 10.6133 74.6345 10.848C74.8692 11.0613 74.9865 11.36 74.9865 11.744V26.752C74.9865 27.136 74.8692 27.4453 74.6345 27.68C74.3998 27.8933 74.1012 28 73.7385 28ZM104.403 28C104.04 28 103.742 27.8933 103.507 27.68C103.272 27.4453 103.155 27.1467 103.155 26.784V17.568C103.155 16.0533 102.76 14.8587 101.971 13.984C101.182 13.088 100.168 12.64 98.931 12.64C97.6083 12.64 96.5203 13.088 95.667 13.984C94.835 14.8587 94.4297 16.032 94.451 17.504H92.243C92.2643 16.0747 92.5737 14.816 93.171 13.728C93.7683 12.64 94.5897 11.7973 95.635 11.2C96.6803 10.6027 97.8643 10.304 99.187 10.304C100.446 10.304 101.555 10.6027 102.515 11.2C103.496 11.7973 104.254 12.64 104.787 13.728C105.342 14.816 105.619 16.096 105.619 17.568V26.784C105.619 27.1467 105.502 27.4453 105.267 27.68C105.054 27.8933 104.766 28 104.403 28ZM82.003 28C81.619 28 81.3097 27.8933 81.075 27.68C80.8617 27.4453 80.755 27.1467 80.755 26.784V11.744C80.755 11.3813 80.8617 11.0827 81.075 10.848C81.3097 10.6133 81.619 10.496 82.003 10.496C82.3657 10.496 82.6537 10.6133 82.867 10.848C83.1017 11.0827 83.219 11.3813 83.219 11.744V26.784C83.219 27.1467 83.1017 27.4453 82.867 27.68C82.6537 27.8933 82.3657 28 82.003 28ZM93.235 28C92.8723 28 92.5737 27.8933 92.339 27.68C92.1043 27.4453 91.987 27.1467 91.987 26.784V17.568C91.987 16.0533 91.5923 14.8587 90.803 13.984C90.0137 13.088 89.0003 12.64 87.763 12.64C86.4403 12.64 85.3523 13.0773 84.499 13.952C83.6457 14.8053 83.219 15.9253 83.219 17.312H81.459C81.5017 15.9467 81.8003 14.7413 82.355 13.696C82.931 12.6293 83.7097 11.7973 84.691 11.2C85.6723 10.6027 86.7817 10.304 88.019 10.304C89.2777 10.304 90.387 10.6027 91.347 11.2C92.3283 11.7973 93.0857 12.64 93.619 13.728C94.1737 14.816 94.451 16.096 94.451 17.568V26.784C94.451 27.1467 94.3337 27.4453 94.099 27.68C93.8857 27.8933 93.5977 28 93.235 28ZM118.78 28.16C117.137 28.16 115.665 27.776 114.364 27.008C113.062 26.2187 112.027 25.152 111.26 23.808C110.513 22.464 110.14 20.9493 110.14 19.264C110.14 17.5573 110.524 16.032 111.292 14.688C112.081 13.344 113.148 12.288 114.492 11.52C115.836 10.7307 117.35 10.336 119.036 10.336C120.721 10.336 122.225 10.7307 123.548 11.52C124.892 12.288 125.948 13.344 126.716 14.688C127.505 16.032 127.91 17.5573 127.932 19.264L126.94 20.032C126.94 21.568 126.577 22.9547 125.852 24.192C125.148 25.408 124.177 26.3787 122.94 27.104C121.724 27.808 120.337 28.16 118.78 28.16ZM119.036 25.92C120.273 25.92 121.372 25.632 122.332 25.056C123.313 24.48 124.081 23.6907 124.635 22.688C125.212 21.664 125.5 20.5227 125.5 19.264C125.5 17.984 125.212 16.8427 124.635 15.84C124.081 14.8373 123.313 14.048 122.332 13.472C121.372 12.8747 120.273 12.576 119.036 12.576C117.82 12.576 116.721 12.8747 115.74 13.472C114.758 14.048 113.98 14.8373 113.404 15.84C112.828 16.8427 112.54 17.984 112.54 19.264C112.54 20.5227 112.828 21.664 113.404 22.688C113.98 23.6907 114.758 24.48 115.74 25.056C116.721 25.632 117.82 25.92 119.036 25.92ZM126.684 28C126.321 28 126.022 27.8933 125.788 27.68C125.553 27.4453 125.436 27.1467 125.436 26.784V21.312L126.044 18.784L127.932 19.264V26.784C127.932 27.1467 127.814 27.4453 127.58 27.68C127.345 27.8933 127.046 28 126.684 28ZM132.724 14.432C132.212 14.432 131.764 14.2613 131.38 13.92C131.017 13.5573 130.836 13.1093 130.836 12.576C130.836 12.0427 131.017 11.5947 131.38 11.232C131.742 10.8693 132.19 10.688 132.724 10.688C133.236 10.688 133.662 10.88 134.004 11.264C134.366 11.6267 134.548 12.064 134.548 12.576C134.548 13.088 134.366 13.5253 134.004 13.888C133.662 14.2507 133.236 14.432 132.724 14.432ZM132.788 28.512C132.276 28.512 131.838 28.3307 131.476 27.968C131.113 27.6053 130.932 27.168 130.932 26.656C130.932 26.1227 131.113 25.6747 131.476 25.312C131.86 24.9493 132.297 24.768 132.788 24.768C133.3 24.768 133.737 24.96 134.1 25.344C134.462 25.7067 134.644 26.144 134.644 26.656C134.644 27.1467 134.462 27.584 134.1 27.968C133.758 28.3307 133.321 28.512 132.788 28.512Z" fill="black"/>
<g clip-path="url(#clip0_604_180)">
<path d="M33.2274 142.554V96.1151L17.2907 82.9395L3 75.6279V134.358C3 138.893 7.06533 142.554 12.0684 142.554H33.2274Z" fill="#4285F4"/>
<path d="M105.772 142.554H126.931C131.95 142.554 136 138.88 136 134.359V75.6289L119.813 84.0034L105.772 96.1156V142.554Z" fill="#34A853"/>
<path d="M33.2276 96.1148L31.0591 77.9699L33.2276 60.6035L69.5002 85.1885L105.773 60.6035L108.199 77.0323L105.773 96.1148L69.5002 120.7L33.2276 96.1148Z" fill="#EA4335"/>
<path d="M105.772 60.6038V96.115L136 75.6278V64.7011C136 54.5669 123.199 48.7897 114.237 54.8674L105.772 60.6038Z" fill="#FBBC04"/>
<path d="M3 75.628L16.9021 85.0509L33.2274 96.1152V60.604L24.7632 54.8676C15.7857 48.7894 3 54.5671 3 64.7008V75.6276V75.628Z" fill="#C5221F"/>
</g>
<defs>
<clipPath id="clip0_604_180">
<rect width="133" height="90.6139" fill="white" transform="translate(3 52.3857)"/>
</clipPath>
</defs>
</svg>
