<svg width="53" height="83" viewBox="0 0 53 83" fill="none" xmlns="http://www.w3.org/2000/svg">
<path d="M16.7189 40.7647C16.3231 40.7647 15.9621 40.5766 15.6361 40.2004C15.3101 39.8242 15.0888 39.3329 14.9724 38.7265L11.0601 17.0568C10.9437 16.5562 10.9963 16.0913 11.218 15.6622C11.4397 15.2331 11.7364 15.0186 12.1081 15.0186H19.1641L25.3119 0.96548C25.4284 0.679412 25.5914 0.446981 25.801 0.268189C26.0106 0.0893963 26.2318 0 26.4647 0C26.6975 0 26.9188 0.0893963 27.1284 0.268189C27.3379 0.446981 27.501 0.679412 27.6174 0.96548L33.7652 15.0186H40.8911C41.2637 15.0186 41.5609 15.2331 41.7826 15.6622C42.0043 16.0913 42.0564 16.5562 41.9391 17.0568L38.0268 38.7265C37.9104 39.3344 37.6891 39.8264 37.3631 40.2026C37.0371 40.5788 36.6761 40.7661 36.2803 40.7647H16.7189ZM26.4996 32.1827C27.2681 32.1827 27.9262 31.7621 28.4739 30.9211C29.0216 30.0801 29.295 29.0702 29.2941 27.8916C29.2941 26.7116 29.0202 25.7011 28.4725 24.86C27.9248 24.019 27.2671 23.5992 26.4996 23.6006C25.7311 23.6006 25.073 24.0211 24.5253 24.8622C23.9776 25.7032 23.7042 26.713 23.7051 27.8916C23.7051 29.0717 23.979 30.0822 24.5267 30.9232C25.0744 31.7643 25.7321 32.1841 26.4996 32.1827ZM22.5524 15.0186H30.4119L26.4647 6.00743L22.5524 15.0186Z" fill="black"/>
<path d="M8.25 77L4.25 71.6591H2.81818V77H1.40909V65.3636H2.81818V70.4091H3.43182L8.09091 65.3636H9.77273L5.06818 70.4773L9.93182 77H8.25ZM14.4759 77.1818C13.688 77.1818 12.9967 76.9943 12.402 76.6193C11.8111 76.2443 11.349 75.7197 11.0156 75.0455C10.6861 74.3712 10.5213 73.5833 10.5213 72.6818C10.5213 71.7727 10.6861 70.9792 11.0156 70.3011C11.349 69.6231 11.8111 69.0966 12.402 68.7216C12.9967 68.3466 13.688 68.1591 14.4759 68.1591C15.2637 68.1591 15.9531 68.3466 16.544 68.7216C17.1387 69.0966 17.6009 69.6231 17.9304 70.3011C18.2637 70.9792 18.4304 71.7727 18.4304 72.6818C18.4304 73.5833 18.2637 74.3712 17.9304 75.0455C17.6009 75.7197 17.1387 76.2443 16.544 76.6193C15.9531 76.9943 15.2637 77.1818 14.4759 77.1818ZM14.4759 75.9773C15.0743 75.9773 15.5668 75.8239 15.9531 75.517C16.3395 75.2102 16.6255 74.8068 16.8111 74.3068C16.9967 73.8068 17.0895 73.2652 17.0895 72.6818C17.0895 72.0985 16.9967 71.5549 16.8111 71.0511C16.6255 70.5473 16.3395 70.1402 15.9531 69.8295C15.5668 69.5189 15.0743 69.3636 14.4759 69.3636C13.8774 69.3636 13.3849 69.5189 12.9986 69.8295C12.6122 70.1402 12.3262 70.5473 12.1406 71.0511C11.955 71.5549 11.8622 72.0985 11.8622 72.6818C11.8622 73.2652 11.955 73.8068 12.1406 74.3068C12.3262 74.8068 12.6122 75.2102 12.9986 75.517C13.3849 75.8239 13.8774 75.9773 14.4759 75.9773ZM20.4773 68.2727H21.8182V75.75H25.1136V68.2727H26.4545V75.75H29.75V68.2727H31.0909V77H20.4773V68.2727ZM34.8807 75.0227L39.0852 68.2727H40.6307V77H39.2898V70.25L35.108 77H33.5398V68.2727H34.8807V75.0227ZM43.0866 77V68.2727H44.4276V72.0682H45.3139L48.4503 68.2727H50.1776L46.6548 72.4773L50.223 77H48.4957L45.6321 73.3182H44.4276V77H43.0866Z" fill="black"/>
</svg>
